<svg width="805" height="70" viewBox="0 0 805 70" fill="none" xmlns="http://www.w3.org/2000/svg">
<g clip-path="url(#clip0_211_2045)">
<path fill-rule="evenodd" clip-rule="evenodd" d="M9.97907 21.15C13.8233 21.15 16.9398 24.2664 16.9398 28.1107V21.15H23.9005C27.7447 21.15 30.8612 24.2664 30.8612 28.1107C30.8612 31.9549 27.7447 35.0714 23.9005 35.0714C27.7447 35.0714 30.8612 38.1878 30.8612 42.032C30.8612 43.9409 30.0928 45.6703 28.8485 46.9278L28.8224 46.954L28.7993 46.977C27.5415 48.2231 25.8109 48.9927 23.9005 48.9927C22.003 48.9927 20.2829 48.2335 19.0273 47.0023C19.011 46.9863 18.9947 46.9702 18.9785 46.954C18.9632 46.9388 18.9481 46.9235 18.933 46.9081C17.7001 45.6522 16.9398 43.9309 16.9398 42.032C16.9398 45.8763 13.8233 48.9927 9.97907 48.9927C6.13478 48.9927 3.01837 45.8763 3.01837 42.032V35.0714H9.97907C6.13478 35.0714 3.01837 31.9549 3.01837 28.1107C3.01837 24.2664 6.13478 21.15 9.97907 21.15ZM15.5476 28.1107C15.5476 31.1861 13.0545 33.6792 9.97907 33.6792V22.5421C13.0545 22.5421 15.5476 25.0352 15.5476 28.1107ZM29.469 42.032C29.469 38.9566 26.9759 36.4635 23.9005 36.4635C20.825 36.4635 18.3319 38.9566 18.3319 42.032H29.469ZM4.41051 36.4635V42.032C4.41051 45.1075 6.90364 47.6006 9.97907 47.6006C13.0545 47.6006 15.5476 45.1075 15.5476 42.032V36.4635H4.41051ZM18.3319 33.6792V22.5421H23.9005C26.9759 22.5421 29.469 25.0352 29.469 28.1107C29.469 31.1861 26.9759 33.6792 23.9005 33.6792H18.3319Z" fill="#263238"/>
</g>
<g clip-path="url(#clip1_211_2045)">
<path fill-rule="evenodd" clip-rule="evenodd" d="M138.046 28.0838L131.095 34.9648C132.485 36.3411 134.074 37.501 135.805 38.4085C136.284 39.6653 137.034 40.844 138.056 41.8555C141.9 45.6611 148.133 45.6611 151.977 41.8555C152.999 40.844 153.749 39.6653 154.228 38.4084C155.959 37.501 157.548 36.3411 158.938 34.9648L151.993 28.0894C151.988 28.0843 151.982 28.0792 151.977 28.074C148.133 24.2684 141.9 24.2684 138.056 28.074C138.052 28.0773 138.049 28.0806 138.046 28.0838ZM151.312 39.6499C149.287 40.3267 147.16 40.6732 145.016 40.6732C142.873 40.6732 140.747 40.3267 138.721 39.6499C138.94 39.9382 139.183 40.2148 139.448 40.4774C142.523 43.5219 147.51 43.5219 150.585 40.4774C150.85 40.2148 151.093 39.9382 151.312 39.6499ZM139.591 29.3143C140.113 29.6559 140.668 29.9482 141.249 30.1865C142.444 30.6762 143.724 30.9283 145.016 30.9283C146.309 30.9283 147.589 30.6762 148.784 30.1865C149.365 29.9482 149.92 29.6559 150.442 29.3143C147.405 26.4536 142.628 26.4536 139.591 29.3143Z" fill="#3B4158"/>
</g>
<g clip-path="url(#clip2_211_2045)">
<path d="M292.58 31.9505C292.584 31.9215 292.584 31.8921 292.58 31.8631C292.584 31.8395 292.584 31.8153 292.58 31.7916L292.297 29.7503C292.256 29.5061 292.146 29.2778 291.981 29.0911L291.932 29.0354L291.843 28.9481L286.933 24.8019L287.071 24.9369C286.958 24.8048 286.817 24.699 286.657 24.6276C286.497 24.5561 286.323 24.5206 286.147 24.5239H284.656C284.414 24.5192 284.177 24.5947 283.984 24.7384C283.781 24.5956 283.537 24.5204 283.287 24.5239H281.796C281.601 24.5208 281.408 24.5684 281.237 24.6618C281.067 24.7553 280.924 24.8913 280.824 25.0561C280.67 25.2914 280.612 25.575 280.662 25.8504L280.849 27.1371C280.725 27.0685 280.585 27.0329 280.443 27.0338H273.225C272.966 27.0354 272.713 27.1099 272.495 27.2483C272.285 27.3772 272.117 27.5617 272.009 27.7805L271.45 27.3118C271.23 27.1123 270.94 27.0041 270.64 27.01H259.314C259.054 27.0147 258.799 27.0858 258.576 27.2165C258.271 27.3917 258.047 27.6766 257.952 28.0108L254.355 39.806C254.288 40.0004 254.281 40.21 254.336 40.4081C254.391 40.6061 254.505 40.7837 254.663 40.918C254.704 40.9523 254.748 40.9841 254.793 41.0133C254.793 41.0133 254.72 40.9657 254.679 40.926L259.589 45.0801C259.797 45.2676 260.068 45.3724 260.351 45.374H271.766C272.027 45.3673 272.281 45.2934 272.504 45.1595C272.629 45.0922 272.742 45.0034 272.836 44.8974L272.876 44.8418L272.941 44.7624L272.99 44.675L273.524 45.1278C273.729 45.3078 273.995 45.4068 274.27 45.4058H285.71C285.97 45.3973 286.224 45.3234 286.447 45.1913C286.57 45.1198 286.682 45.0316 286.779 44.9292L286.82 44.8736L286.884 44.7942C286.919 44.7439 286.949 44.6908 286.974 44.6353C287 44.5871 287.022 44.5366 287.038 44.4844L290.32 33.7138V33.6185C290.324 33.5815 290.324 33.5443 290.32 33.5073V33.4358C290.324 33.4121 290.324 33.388 290.32 33.3643C290.323 33.3141 290.323 33.2637 290.32 33.2134H291.373C291.465 33.2216 291.557 33.2216 291.648 33.2134H291.721C291.781 33.1961 291.838 33.172 291.892 33.1419H291.973L292.118 33.0307L292.183 32.9831L292.297 32.8401V32.7925L292.378 32.6574C292.373 32.6312 292.373 32.6043 292.378 32.578C292.373 32.5651 292.373 32.5512 292.378 32.5383C292.395 32.4917 292.408 32.4439 292.418 32.3953C292.414 32.3796 292.414 32.3633 292.418 32.3476C292.414 32.324 292.414 32.2998 292.418 32.2762C292.418 32.2762 292.58 31.9664 292.58 31.9505Z" fill="black"/>
<path d="M270.972 27.9155C271.015 27.9537 271.045 28.0038 271.058 28.0592C271.071 28.1146 271.067 28.1726 271.045 28.2253L267.456 40.0126C267.411 40.1413 267.318 40.2488 267.197 40.3144C267.098 40.3793 266.983 40.4176 266.865 40.4256H255.457C255.36 40.421 255.267 40.3814 255.198 40.3144C255.156 40.2769 255.127 40.2281 255.114 40.1744C255.101 40.1206 255.105 40.0643 255.125 40.0126L258.722 28.2253C258.764 28.095 258.853 27.9845 258.973 27.9155C259.074 27.8553 259.188 27.8199 259.305 27.8123H270.713C270.81 27.8132 270.902 27.8501 270.972 27.9155ZM265.017 37.6376L267.164 30.6002H261.153L259.014 37.6376H265.017ZM281.861 28.0347C281.9 28.079 281.949 28.1142 282.004 28.1376C282.058 28.1609 282.118 28.1719 282.177 28.1697H283.66C283.716 28.1702 283.772 28.1567 283.822 28.1303C283.871 28.1039 283.913 28.0655 283.944 28.0188C283.97 27.9823 283.988 27.941 283.998 27.8973C284.008 27.8537 284.009 27.8086 284 27.7646L283.709 25.6677C283.681 25.5706 283.631 25.481 283.563 25.4056C283.524 25.3612 283.475 25.3261 283.42 25.3027C283.366 25.2793 283.306 25.2683 283.247 25.2706H281.764C281.708 25.27 281.652 25.2836 281.602 25.31C281.553 25.3364 281.511 25.3748 281.481 25.4215C281.424 25.5327 281.4 25.6042 281.424 25.6677L281.724 27.7646C281.739 27.8667 281.787 27.9613 281.861 28.0347ZM286.569 25.6518C286.541 25.5548 286.491 25.4651 286.423 25.3897C286.385 25.3455 286.338 25.3104 286.285 25.2869C286.231 25.2635 286.173 25.2525 286.115 25.2547H284.624C284.569 25.2531 284.514 25.2663 284.465 25.2929C284.417 25.3195 284.376 25.3584 284.349 25.4056C284.295 25.476 284.271 25.5646 284.284 25.6518L284.584 27.7487C284.602 27.8498 284.65 27.9434 284.721 28.0188C284.761 28.0623 284.81 28.0968 284.864 28.1201C284.919 28.1435 284.978 28.1549 285.037 28.1538H286.528C286.583 28.1545 286.638 28.141 286.686 28.1145C286.735 28.088 286.775 28.0495 286.804 28.0029C286.832 27.9674 286.851 27.9261 286.861 27.8821C286.871 27.8381 286.871 27.7926 286.86 27.7487L286.569 25.6518ZM280.557 28.829L280.411 27.7964H273.225C273.112 27.8025 273.003 27.8382 272.909 27.8996C272.849 27.9316 272.797 27.9758 272.756 28.0292C272.716 28.0827 272.688 28.1442 272.674 28.2094L272.074 30.1792C272.05 30.2285 272.042 30.2837 272.051 30.3376C272.059 30.3915 272.085 30.4415 272.123 30.4811C272.191 30.5441 272.28 30.5808 272.374 30.5844H281.108L278.961 37.6218H270.251C270.139 37.6243 270.03 37.6573 269.935 37.7171C269.821 37.7884 269.737 37.8987 269.7 38.0268L269.093 39.9967C269.073 40.0472 269.068 40.1022 269.078 40.1554C269.088 40.2087 269.112 40.2582 269.149 40.2985C269.216 40.3657 269.305 40.4055 269.401 40.4097H280.84C280.959 40.3997 281.073 40.3616 281.173 40.2985C281.292 40.2326 281.382 40.1248 281.424 39.9967L284.713 29.2261H281.011C280.952 29.2272 280.894 29.2166 280.839 29.1947C280.785 29.1728 280.736 29.1403 280.695 29.099C280.628 29.027 280.58 28.9396 280.557 28.8449V28.829Z" fill="white"/>
</g>
<g clip-path="url(#clip3_211_2045)">
<path d="M415.785 27.701C415.785 27.7246 415.785 27.754 415.779 27.7717C415.748 28.0011 415.748 28.2306 415.767 28.466C415.779 28.5248 415.791 28.5837 415.84 28.6308C415.92 28.719 416.043 28.7014 416.092 28.5954C416.116 28.5425 416.116 28.4895 416.104 28.4366C416.043 28.213 416.03 27.9776 416.024 27.7481C416.024 27.7363 416.024 27.7187 416.024 27.701C416.092 27.6952 416.153 27.6893 416.208 27.6893C416.251 27.6834 416.288 27.6775 416.319 27.6599C416.41 27.6128 416.41 27.5128 416.312 27.4657C416.276 27.448 416.227 27.4421 416.184 27.4421C416.03 27.448 415.877 27.448 415.724 27.448C415.669 27.448 415.613 27.4539 415.558 27.4598C415.528 27.4657 415.491 27.4657 415.466 27.4833C415.423 27.501 415.399 27.5304 415.399 27.5716C415.405 27.6128 415.423 27.6363 415.466 27.654C415.491 27.6716 415.522 27.6775 415.552 27.6775C415.626 27.6834 415.705 27.6952 415.785 27.701ZM417.471 27.9717C417.471 27.9776 417.477 27.9835 417.477 27.9835C417.502 28.1424 417.526 28.2954 417.545 28.4483C417.551 28.5013 417.557 28.5484 417.594 28.5896C417.673 28.6896 417.796 28.6778 417.851 28.5719C417.876 28.5189 417.882 28.466 417.87 28.4071C417.833 28.2306 417.814 28.0541 417.778 27.8835C417.753 27.7775 417.723 27.6775 417.692 27.5834C417.673 27.5245 417.631 27.4833 417.557 27.4774C417.483 27.4657 417.428 27.501 417.398 27.5539C417.361 27.601 417.33 27.6481 417.306 27.701C417.263 27.7952 417.226 27.8893 417.177 27.9776C417.171 28.0011 417.165 28.0188 417.152 28.0364C417.146 28.0247 417.14 28.0188 417.14 28.0188C417.06 27.8717 416.987 27.7246 416.907 27.5834C416.895 27.5716 416.889 27.5598 416.883 27.5481C416.846 27.4951 416.803 27.4657 416.735 27.4657C416.674 27.4716 416.625 27.5069 416.594 27.5598C416.582 27.5834 416.582 27.601 416.576 27.6246C416.551 27.8128 416.521 28.0011 416.496 28.1894C416.484 28.2954 416.478 28.4013 416.478 28.5072C416.472 28.5307 416.478 28.5601 416.49 28.5837C416.502 28.6307 416.539 28.6602 416.588 28.6661C416.65 28.6719 416.692 28.6543 416.711 28.6072C416.729 28.5719 416.735 28.5425 416.742 28.5131C416.766 28.4071 416.784 28.3071 416.803 28.2071C416.815 28.1482 416.821 28.1012 416.84 28.0364C416.852 28.06 416.864 28.0776 416.876 28.0953C416.932 28.1659 416.987 28.2365 417.054 28.2954C417.122 28.3424 417.177 28.3365 417.232 28.2836C417.244 28.2718 417.25 28.2659 417.263 28.2542C417.318 28.1718 417.385 28.0894 417.44 28.007C417.453 27.9953 417.459 27.9835 417.471 27.9717Z" fill="#3A3B7B"/>
<path d="M403.345 27.8167C403.302 27.9285 403.294 28.009 403.314 28.076C403.336 28.1671 403.392 28.1969 403.469 28.1737C404.189 28.0028 405.768 28.4879 406.352 28.6231C406.49 28.6515 406.602 28.4807 406.508 28.3275C406.371 28.1792 404.793 27.5442 404.19 27.5096C403.954 27.4968 403.532 27.4387 403.345 27.8167Z" fill="#3A3B7B"/>
<path d="M409.516 25.761C409.593 25.8035 409.636 25.8441 409.657 25.8894C409.689 25.9488 409.672 25.99 409.619 26.0109C409.143 26.2339 408.509 27.1939 408.254 27.5249C408.192 27.6011 408.049 27.5568 408.027 27.4316C408.032 27.29 408.593 26.2482 408.907 25.9645C409.03 25.8537 409.233 25.6364 409.516 25.761Z" fill="#3A3B7B"/>
<path d="M405.725 25.2885C405.818 25.2218 405.913 25.1984 405.962 25.2418C406.681 25.8313 407.061 26.7648 407.297 27.6194C407.306 27.6393 407.307 27.6679 407.3 27.6977C407.297 27.7232 407.277 27.7501 407.246 27.7709C407.214 27.7939 407.185 27.8009 407.172 27.7811C406.857 27.3702 405.059 25.7714 405.725 25.2885Z" fill="#3A3B7B"/>
<path d="M390.517 35.5089C390.689 35.386 390.876 35.2836 391.074 35.2041C391.281 35.1473 391.502 35.1567 391.703 35.231C391.904 35.3053 392.075 35.4404 392.189 35.6159C392.291 35.791 392.331 35.9931 392.302 36.1919C392.274 36.3906 392.18 36.5751 392.033 36.7178C391.919 36.8334 391.789 36.9341 391.648 37.0173C391.018 37.4078 390.383 37.7768 389.748 38.1673C389.618 38.265 389.48 38.3527 389.335 38.4294C389.116 38.5346 388.864 38.5627 388.625 38.509C388.386 38.4553 388.174 38.3231 388.026 38.1352C387.915 38.0021 387.821 37.8567 387.747 37.7019C387.145 36.4878 386.521 35.279 385.942 34.0434C385.674 33.5086 385.457 32.8934 385.245 32.2997C385.153 32.1272 385.135 31.9273 385.195 31.7423C385.255 31.5573 385.387 31.402 385.564 31.3093C385.741 31.2166 385.949 31.194 386.144 31.2461C386.338 31.2982 386.503 31.421 386.605 31.5884C386.916 31.9859 387.192 32.4082 387.43 32.8507C388.031 33.9204 388.605 34.9901 389.185 36.0278C389.219 36.0851 389.256 36.1404 389.296 36.1936C389.733 36.0175 390.143 35.7874 390.517 35.5089Z" fill="#3A3B7B"/>
<path d="M396.74 35.1358C395.363 36.6816 393.056 36.2911 391.897 34.3014C391.072 32.8893 390.927 30.5573 392.722 29.0864C393.105 28.7785 393.563 28.5687 394.054 28.4767C394.655 28.3939 395.268 28.4957 395.806 28.7676C396.343 29.0395 396.778 29.4674 397.046 29.9903C398.027 31.7019 397.888 33.8842 396.74 35.1358ZM396.183 31.5308C396.036 31.1102 395.743 30.7511 395.352 30.5145C395.131 30.3632 394.862 30.2897 394.591 30.3063C394.32 30.3228 394.064 30.4285 393.864 30.6054C393.067 31.2847 392.9 32.8947 393.48 33.8521C393.554 34.0082 393.662 34.147 393.798 34.2586C393.933 34.3703 394.093 34.4522 394.265 34.4985C394.437 34.5449 394.617 34.5546 394.793 34.5271C394.97 34.4994 395.138 34.4352 395.285 34.3388C395.717 34.0174 396.034 33.5747 396.192 33.0725C396.35 32.5702 396.341 32.0332 396.166 31.5361L396.183 31.5308Z" fill="#3A3B7B"/>
<path d="M402.357 32.2047C402.216 32.2338 402.071 32.2355 401.929 32.2098C401.787 32.1841 401.653 32.1314 401.532 32.055C401.427 31.9972 401.337 31.9179 401.268 31.8226C401.198 31.7273 401.152 31.6185 401.132 31.5039C401.111 31.3894 401.118 31.2719 401.15 31.16C401.183 31.0481 401.241 30.9446 401.321 30.8568C401.459 30.6805 401.655 30.5542 401.878 30.4985C402.459 30.3366 403.057 30.2379 403.661 30.2043C403.794 30.1895 403.929 30.2003 404.057 30.236C404.185 30.2718 404.305 30.3318 404.409 30.4125C404.512 30.4932 404.598 30.593 404.661 30.7061C404.724 30.8191 404.763 30.9431 404.776 31.0708C404.95 31.6979 404.969 32.3555 404.832 32.991C404.33 35.0449 402.602 35.7509 400.663 35.093C400.119 34.9171 399.641 34.5894 399.292 34.1516C398.826 33.6245 398.496 32.9998 398.328 32.3277C398.192 31.7293 398.207 31.1083 398.372 30.5165C398.536 29.9247 398.846 29.3794 399.275 28.926C399.683 28.4332 400.211 28.0453 400.814 27.7974C401.194 27.5961 401.64 27.5388 402.062 27.6369C402.158 27.6624 402.245 27.712 402.314 27.7806C402.383 27.8492 402.432 27.9342 402.455 28.027C402.478 28.1198 402.475 28.2168 402.446 28.3081C402.417 28.3994 402.364 28.4816 402.29 28.5462C402.151 28.6671 402 28.7746 401.839 28.8671C401.344 29.1699 400.912 29.5602 400.568 30.0171C400.343 30.3128 400.188 30.6523 400.113 31.0117C400.039 31.3712 400.048 31.7419 400.139 32.0978C400.266 32.583 400.546 33.0185 400.942 33.344C402.168 34.4137 403.762 33.3814 403.483 31.9212C403.076 32.0175 402.719 32.1191 402.357 32.2047Z" fill="#3A3B7B"/>
<path d="M409.847 35.2213C408.036 36.2911 405.974 35.2213 405.523 32.9749C405.194 31.3703 405.818 29.1238 408.003 28.268C408.467 28.0899 408.972 28.0273 409.468 28.0862C410.065 28.191 410.613 28.473 411.033 28.8924C411.454 29.3117 411.728 29.8473 411.814 30.4236C412.182 32.333 411.346 34.3709 409.847 35.2213ZM410.477 31.6217C410.476 31.1773 410.313 30.7474 410.015 30.4075C409.855 30.1973 409.625 30.0467 409.362 29.9813C409.1 29.916 408.823 29.9399 408.577 30.0492C407.596 30.4556 406.905 31.9319 407.156 33.0177C407.175 33.1881 407.232 33.3524 407.325 33.4992C407.417 33.6459 407.541 33.7716 407.689 33.8674C407.838 33.9631 408.006 34.0267 408.182 34.0537C408.358 34.0805 408.539 34.0702 408.71 34.0232C409.229 33.8494 409.678 33.5246 409.994 33.094C410.311 32.6634 410.48 32.1487 410.477 31.6217Z" fill="#3A3B7B"/>
<path d="M413.646 35.6707C413.619 35.8664 413.511 36.0437 413.348 36.1636C413.184 36.2835 412.978 36.3361 412.774 36.3098C412.57 36.2836 412.385 36.1806 412.26 36.0237C412.135 35.8667 412.081 35.6685 412.108 35.4728C412.135 35.277 412.243 35.0997 412.406 34.9798C412.57 34.8599 412.776 34.8074 412.98 34.8336C413.184 34.8598 413.369 34.9627 413.494 35.1197C413.619 35.2767 413.673 35.4749 413.646 35.6707ZM413.161 28.4553C413.267 28.2999 413.423 28.1816 413.604 28.118C413.786 28.0543 413.985 28.0488 414.17 28.1022C414.358 28.1475 414.525 28.2535 414.641 28.4024C414.758 28.5514 414.818 28.7344 414.811 28.9206C414.786 29.2193 414.74 29.516 414.671 29.8085C414.488 30.798 414.309 31.7875 414.114 32.7663C414.025 33.1568 413.908 33.5312 413.78 33.927C413.735 34.0507 413.661 34.1625 413.562 34.2532C413.501 34.3215 413.423 34.3739 413.336 34.4055C413.248 34.4371 413.153 34.447 413.06 34.4342C412.968 34.4214 412.88 34.3863 412.805 34.3323C412.73 34.2782 412.67 34.2069 412.632 34.1249C412.566 33.9778 412.53 33.8198 412.526 33.6595C412.526 32.9963 412.526 32.3277 412.571 31.6591C412.646 30.705 412.795 29.7574 413.016 28.8243C413.042 28.6993 413.091 28.5798 413.161 28.4713V28.4553Z" fill="#3A3B7B"/>
<path fill-rule="evenodd" clip-rule="evenodd" d="M388.162 39.9688C388.097 40.1098 388.078 40.267 388.111 40.4182C388.132 40.6176 388.179 40.8137 388.251 41.0021C388.34 41.2328 388.44 41.4609 388.563 41.742C388.591 41.8067 388.621 41.8742 388.652 41.9453C388.818 42.3262 389.026 42.8129 389.304 43.5174C389.383 43.7175 389.453 43.9192 389.523 44.1224C389.552 44.2045 389.58 44.2868 389.609 44.3694C389.714 44.6628 389.894 44.9264 390.133 45.1353C390.234 45.2501 390.369 45.3338 390.519 45.3757C390.673 45.4183 390.837 45.4156 390.989 45.3679C391.141 45.3202 391.274 45.2296 391.372 45.108C391.468 44.9887 391.525 44.8451 391.536 44.6949C391.598 44.4025 391.577 44.0993 391.474 43.8174C391.312 43.3493 391.127 42.8805 390.913 42.422L390.912 42.42C390.561 41.7027 390.204 40.9903 389.83 40.2776L389.827 40.2726C389.717 40.087 389.575 39.921 389.406 39.7822C389.297 39.6583 389.146 39.5747 388.979 39.5459C388.808 39.5164 388.633 39.5461 388.483 39.6295C388.341 39.7072 388.229 39.8259 388.162 39.9688Z" fill="#3A3B7B"/>
<path fill-rule="evenodd" clip-rule="evenodd" d="M393.529 38.2024C392.978 38.0655 392.403 38.0455 391.843 38.144C391.409 38.1849 390.983 38.2809 390.687 38.471C390.536 38.5678 390.415 38.692 390.347 38.8499C390.279 39.0087 390.27 39.1903 390.326 39.3926C390.428 39.7632 390.56 40.1235 390.692 40.4827L390.713 40.5409L390.714 40.5421C391.111 41.5856 391.512 42.6255 391.916 43.6618C391.963 43.8251 392.03 43.9827 392.115 44.1313L392.116 44.134C392.228 44.3186 392.372 44.4837 392.542 44.6224C392.626 44.6987 392.731 44.7514 392.845 44.775C392.959 44.7988 393.079 44.7919 393.19 44.755C393.301 44.7182 393.399 44.6528 393.474 44.566C393.547 44.4806 393.596 44.3778 393.613 44.2683C393.686 43.9709 393.663 43.6592 393.546 43.3749C393.51 43.2793 393.481 43.1815 393.451 43.0786C393.441 43.0443 393.431 43.0094 393.42 42.9738C394.346 42.6265 395.331 42.1596 395.677 41.0732C395.813 40.6978 395.824 40.2912 395.709 39.9094C395.595 39.5271 395.359 39.1882 395.036 38.9395C394.596 38.5913 394.081 38.3397 393.529 38.2024ZM392.002 39.5349C392.02 39.5299 392.038 39.5252 392.057 39.5208C392.659 39.4299 393.276 39.5511 393.793 39.8619C394.021 40.014 394.114 40.183 394.13 40.3456C394.147 40.513 394.083 40.6944 393.956 40.8687C393.715 41.1981 393.276 41.4618 392.879 41.5109C392.59 40.8715 392.296 40.2062 392.002 39.5349Z" fill="#3A3B7B"/>
<path d="M397.202 37.0319C397.858 36.7411 398.671 36.6909 399.307 36.8953C399.467 36.9401 399.606 37.037 399.7 37.1693C399.793 37.3009 399.836 37.4594 399.822 37.6178C399.821 37.7207 399.794 37.8219 399.745 37.9132C399.695 38.0061 399.622 38.086 399.532 38.1462C399.443 38.2064 399.34 38.2451 399.232 38.2589C399.123 38.2727 399.013 38.2613 398.911 38.2257L398.903 38.223L398.895 38.2193C398.843 38.1929 398.787 38.173 398.729 38.1601L398.726 38.1593C398.278 38.0453 397.856 38.2342 397.702 38.4664C397.629 38.5771 397.62 38.6889 397.681 38.7905C397.746 38.8994 397.907 39.0216 398.233 39.1086C398.322 39.1322 398.414 39.155 398.507 39.1781C398.764 39.2421 399.032 39.3085 399.29 39.4006L399.291 39.4009C400.484 39.8366 400.929 40.7389 400.776 41.5875C400.626 42.4267 399.896 43.1905 398.798 43.3706C398.398 43.4557 397.982 43.4391 397.591 43.3226C397.199 43.2058 396.846 42.9926 396.566 42.7041L396.559 42.6966C396.471 42.5879 396.412 42.4602 396.385 42.3247C396.361 42.2025 396.374 42.0761 396.422 41.9606C396.47 41.8457 396.551 41.7463 396.655 41.6738C396.766 41.5917 396.899 41.5424 397.038 41.5322C397.177 41.5219 397.315 41.5509 397.437 41.6154C397.559 41.6718 397.672 41.7438 397.774 41.8294L397.776 41.831C397.955 41.9887 398.173 42.0298 398.381 41.9918C398.593 41.9531 398.792 41.833 398.92 41.6736C399.047 41.5151 399.098 41.327 399.037 41.1443C398.977 40.9603 398.793 40.7541 398.391 40.5817C398.285 40.5388 398.176 40.5042 398.063 40.4706C398.032 40.4615 398.001 40.4524 397.97 40.4433C397.886 40.4188 397.799 40.3936 397.715 40.3659C397.656 40.3468 397.598 40.3287 397.541 40.3108C397.384 40.2618 397.232 40.2141 397.085 40.1501C396.765 40.0456 396.489 39.8449 396.297 39.5778C396.105 39.3096 396.008 38.9889 396.021 38.6635C396.022 37.8706 396.542 37.3243 397.202 37.0319Z" fill="#3A3B7B"/>
<path d="M405.52 36.9475C405.392 36.8878 405.252 36.8595 405.11 36.8651C404.969 36.8707 404.831 36.9099 404.709 36.9794C404.588 37.0484 404.487 37.1451 404.415 37.2607C404.348 37.3581 404.302 37.467 404.279 37.5814C404.256 37.6957 404.257 37.8131 404.281 37.9271C404.304 38.0737 404.331 38.2162 404.357 38.3567C404.4 38.5892 404.441 38.8165 404.469 39.0483L404.47 39.0542C404.533 39.4177 404.566 39.7853 404.569 40.1537L404.569 40.1589C404.59 40.5568 404.449 40.9469 404.175 41.2464L404.171 41.2518C404.082 41.3613 403.963 41.4449 403.827 41.4932C403.692 41.5415 403.544 41.5526 403.403 41.5252C403.261 41.4979 403.129 41.4332 403.024 41.3384C402.918 41.2435 402.841 41.122 402.803 40.988C402.722 40.7055 402.675 40.415 402.663 40.1222L402.802 37.9997C402.804 37.972 402.806 37.9436 402.809 37.9149C402.814 37.8504 402.819 37.7848 402.822 37.7235C402.825 37.6334 402.822 37.5407 402.8 37.453C402.778 37.3634 402.735 37.2781 402.66 37.2055C402.585 37.1336 402.484 37.0805 402.357 37.0444C402.127 36.9806 401.933 36.9826 401.771 37.0486C401.609 37.1145 401.498 37.2369 401.42 37.3783C401.342 37.5185 401.292 37.6845 401.254 37.8507C401.226 37.9741 401.203 38.1036 401.182 38.2269C401.174 38.2694 401.167 38.3111 401.16 38.3516L401.16 38.3528C401.045 39.0288 401.011 39.7152 401.058 40.3987C401.067 40.7681 401.147 41.1327 401.295 41.4739C401.461 41.9141 401.763 42.2955 402.16 42.5678C402.558 42.8406 403.033 42.991 403.522 42.9989C404.011 43.0068 404.491 42.872 404.898 42.6123C405.305 42.353 405.62 41.9813 405.802 41.5464C406.057 40.9924 406.176 40.39 406.151 39.7849C406.136 39.3432 406.111 38.8981 406.087 38.4553C406.074 38.238 406.062 38.0213 406.051 37.8058C406.046 37.5898 405.971 37.3805 405.838 37.2062C405.756 37.0959 405.647 37.007 405.52 36.9475Z" fill="#3A3B7B"/>
<path d="M410.022 40.2755C410.009 40.2912 409.996 40.3075 409.982 40.3244C409.878 39.7515 409.782 39.1788 409.686 38.6052C409.652 38.3994 409.617 38.1927 409.582 37.9866L409.578 37.9636L409.566 37.9438C409.542 37.9064 409.539 37.8697 409.539 37.7915V37.7825L409.538 37.7736C409.512 37.6121 409.436 37.4619 409.319 37.3425C409.204 37.2234 409.053 37.1406 408.887 37.1046C408.722 37.0655 408.548 37.0741 408.388 37.1294C408.228 37.1846 408.089 37.2838 407.988 37.4146C407.903 37.5149 407.834 37.6262 407.782 37.7451C407.665 38.0013 407.546 38.2581 407.427 38.5156L407.425 38.5201C407.128 39.163 406.83 39.8102 406.54 40.4624L406.539 40.4645C406.361 40.8875 406.213 41.3331 406.067 41.7774C406.038 41.8661 406.008 41.9547 405.979 42.0431C405.926 42.1833 405.903 42.3323 405.911 42.4811C405.901 42.6144 405.934 42.7474 406.006 42.862C406.079 42.979 406.189 43.071 406.319 43.1252C406.457 43.1834 406.612 43.1957 406.758 43.1603C406.905 43.1249 407.034 43.044 407.127 42.9302C407.246 42.7901 407.348 42.6372 407.431 42.4753C407.677 41.9927 407.912 41.5043 408.146 41.018C408.236 40.8299 408.324 40.6615 408.424 40.478C408.431 40.5006 408.438 40.5227 408.445 40.5448C408.55 40.9877 408.727 41.412 408.97 41.8021C409.016 41.8847 409.079 41.9569 409.157 42.0137C409.236 42.0713 409.326 42.1116 409.423 42.1321C409.519 42.1526 409.619 42.1527 409.715 42.1324C409.812 42.1121 409.903 42.0717 409.981 42.0145L410.137 41.9028L411.344 40.9271L411.272 41.3636C411.174 41.9636 411.077 42.5587 410.974 43.1538C410.906 43.4176 410.906 43.6932 410.974 43.9569C411.003 44.1053 411.078 44.2419 411.189 44.3493C411.3 44.4577 411.443 44.5312 411.599 44.5606C411.755 44.5899 411.916 44.5737 412.062 44.5139C412.206 44.455 412.328 44.3566 412.414 44.2311C412.613 43.9942 412.737 43.7073 412.771 43.4046C412.822 42.9772 412.88 42.544 412.938 42.1109C413.004 41.6118 413.071 41.1127 413.127 40.6232L413.128 40.6217C413.182 40.0859 413.208 39.5479 413.206 39.0096C413.218 38.8395 413.174 38.67 413.08 38.5252C412.986 38.3798 412.846 38.2668 412.681 38.2022C412.509 38.1272 412.317 38.1072 412.132 38.1451C411.949 38.1827 411.783 38.2755 411.658 38.4098C411.436 38.6074 411.227 38.8189 411.033 39.0428L411.032 39.0443C410.82 39.2972 410.61 39.5551 410.402 39.8113C410.275 39.9671 410.148 40.1225 410.022 40.2755Z" fill="#3A3B7B"/>
</g>
<g clip-path="url(#clip4_211_2045)">
<path d="M542.081 26.5031C542.081 26.8275 542.347 27.0904 542.675 27.0904H543.27C543.598 27.0904 543.864 26.8275 543.864 26.5031C543.864 26.1788 543.598 25.9158 543.27 25.9158H542.675C542.347 25.9158 542.081 26.1788 542.081 26.5031Z" fill="#212326"/>
<path d="M524.838 44.7097H527.727L526.886 43.8791C526.663 43.6588 526.36 43.5351 526.045 43.5351H524.838C520.241 43.5351 516.515 39.8538 516.515 35.3128C516.515 30.7717 520.241 27.0905 524.838 27.0904H534.351C538.948 27.0904 542.675 30.7717 542.675 35.3128C542.675 39.8538 538.948 43.5351 534.351 43.5351H530.793C530.32 43.5351 529.866 43.3495 529.531 43.0191L528.546 42.046C527.989 41.4953 527.233 41.1859 526.444 41.1859H524.838C521.555 41.1859 518.893 38.5564 518.893 35.3128C518.893 32.0691 521.555 29.4397 524.838 29.4397H534.351C537.635 29.4397 540.297 32.0691 540.297 35.3128C540.297 38.5564 537.635 41.1859 534.351 41.1859H532.066C531.593 41.1859 531.14 41.0002 530.805 40.6698L529.82 39.6967C529.262 39.146 528.506 38.8366 527.718 38.8366H524.838C522.868 38.8366 521.271 37.2589 521.271 35.3128C521.271 33.3666 522.868 31.7889 524.838 31.7889H534.351C536.322 31.7889 537.919 33.3666 537.919 35.3128C537.919 37.2352 536.36 38.7981 534.423 38.8359L534.423 38.8366H533.553C533.08 38.8366 532.626 38.651 532.292 38.3206L531.306 37.3475C530.849 36.8956 530.258 36.6062 529.625 36.5169L529.595 36.4874H524.838C524.182 36.4874 523.649 35.9615 523.649 35.3128C523.649 34.6641 524.182 34.1382 524.838 34.1382H534.351C535.008 34.1382 535.54 34.6641 535.54 35.3128C535.54 35.9615 535.008 36.4874 534.351 36.4874H531.973L532.814 37.318C533.037 37.5382 533.339 37.662 533.655 37.662H534.351C535.665 37.662 536.73 36.6102 536.73 35.3128C536.73 34.0153 535.665 32.9635 534.351 32.9635H524.838C523.525 32.9635 522.46 34.0153 522.46 35.3128C522.46 36.6102 523.525 37.662 524.838 37.662H529.204C529.677 37.662 530.131 37.8476 530.466 38.178L531.451 39.1511C532.008 39.7018 532.764 40.0112 533.553 40.0112H534.649V40.0022C537.137 39.8506 539.108 37.809 539.108 35.3128C539.108 32.7179 536.978 30.6143 534.351 30.6143H524.838C522.211 30.6143 520.082 32.7179 520.082 35.3128C520.082 37.9077 522.211 40.0112 524.838 40.0112H527.718C528.191 40.0112 528.645 40.1969 528.979 40.5273L529.964 41.5004C530.522 42.0511 531.278 42.3605 532.066 42.3605H534.351C538.292 42.3605 541.486 39.2051 541.486 35.3128C541.486 31.4204 538.292 28.2651 534.351 28.2651H524.838C520.898 28.2651 517.704 31.4204 517.704 35.3128C517.704 39.2051 520.898 42.3605 524.838 42.3605H526.444C526.917 42.3605 527.371 42.5461 527.706 42.8765L528.691 43.8496C529.248 44.4003 530.004 44.7097 530.793 44.7097H534.351C539.605 44.7097 543.864 40.5026 543.864 35.3128C543.864 30.123 539.605 25.9158 534.351 25.9158L524.838 25.9158C519.585 25.9158 515.325 30.123 515.325 35.3128C515.325 40.5026 519.585 44.7097 524.838 44.7097Z" fill="#212326"/>
</g>
<g clip-path="url(#clip5_211_2045)">
<path d="M647.818 28.004C646.404 28.004 645.048 28.5655 644.049 29.5651L640.787 32.827C639.787 33.8266 639.226 35.1822 639.226 36.5957C639.226 39.5392 641.612 41.9254 644.556 41.9254C645.969 41.9254 647.325 41.3639 648.324 40.3644L650.581 38.108C650.581 38.108 650.581 38.1081 650.581 38.108L657.155 31.5338C657.632 31.0565 658.28 30.7883 658.955 30.7883C660.085 30.7883 661.043 31.5249 661.375 32.5443L663.45 30.4695C662.504 28.987 660.844 28.004 658.955 28.004C657.541 28.004 656.185 28.5655 655.186 29.5651L646.355 38.3956C645.878 38.873 645.231 39.1411 644.556 39.1411C643.15 39.1411 642.01 38.0015 642.01 36.5957C642.01 35.9206 642.278 35.2732 642.756 34.7958L646.018 31.5338C646.495 31.0565 647.142 30.7883 647.818 30.7883C648.948 30.7883 649.906 31.525 650.238 32.5444L652.313 30.4695C651.366 28.9871 649.707 28.004 647.818 28.004Z" fill="#394149"/>
<path d="M657.493 38.3956C657.015 38.873 656.368 39.1411 655.693 39.1411C654.563 39.1411 653.604 38.4047 653.272 37.3855L651.197 39.4603C652.144 40.9425 653.804 41.9254 655.693 41.9254C657.106 41.9254 658.462 41.3639 659.461 40.3644L668.292 31.5338C668.769 31.0565 669.417 30.7883 670.092 30.7883C671.498 30.7883 672.637 31.9279 672.637 33.3337C672.637 34.0088 672.369 34.6563 671.892 35.1336L668.63 38.3956C668.152 38.873 667.505 39.1411 666.83 39.1411C665.7 39.1411 664.741 38.4046 664.409 37.3853L662.334 39.4601C663.281 40.9425 664.941 41.9254 666.83 41.9254C668.243 41.9254 669.599 41.3639 670.598 40.3644L673.86 37.1024C674.86 36.1029 675.421 34.7473 675.421 33.3337C675.421 30.3902 673.035 28.004 670.092 28.004C668.678 28.004 667.323 28.5655 666.323 29.5651L657.493 38.3956Z" fill="#394149"/>
</g>
<g clip-path="url(#clip6_211_2045)">
<path d="M804.887 31.9505C804.891 31.9215 804.891 31.8921 804.887 31.8631C804.891 31.8395 804.891 31.8153 804.887 31.7916L804.604 29.7503C804.563 29.5061 804.453 29.2778 804.288 29.0911L804.239 29.0354L804.15 28.9481L799.24 24.8019L799.378 24.9369C799.265 24.8048 799.124 24.699 798.964 24.6276C798.804 24.5561 798.63 24.5206 798.454 24.5239H796.964C796.721 24.5192 796.484 24.5947 796.291 24.7384C796.088 24.5956 795.844 24.5204 795.594 24.5239H794.104C793.908 24.5208 793.715 24.5684 793.545 24.6618C793.374 24.7553 793.231 24.8913 793.131 25.0561C792.977 25.2914 792.92 25.575 792.969 25.8504L793.156 27.1371C793.032 27.0685 792.893 27.0329 792.751 27.0338H785.532C785.273 27.0354 785.02 27.1099 784.803 27.2483C784.593 27.3772 784.424 27.5617 784.317 27.7805L783.757 27.3118C783.537 27.1123 783.247 27.0041 782.947 27.01H771.621C771.361 27.0147 771.107 27.0858 770.883 27.2165C770.578 27.3917 770.354 27.6766 770.26 28.0108L766.662 39.806C766.595 40.0004 766.589 40.21 766.643 40.4081C766.698 40.6061 766.812 40.7837 766.97 40.918C767.011 40.9523 767.055 40.9841 767.1 41.0133C767.1 41.0133 767.027 40.9657 766.986 40.926L771.896 45.0801C772.104 45.2676 772.375 45.3724 772.658 45.374H784.073C784.334 45.3673 784.588 45.2934 784.811 45.1595C784.936 45.0922 785.049 45.0034 785.143 44.8974L785.183 44.8418L785.248 44.7624L785.297 44.675L785.832 45.1278C786.036 45.3078 786.302 45.4068 786.577 45.4058H798.017C798.277 45.3973 798.531 45.3234 798.754 45.1913C798.877 45.1198 798.989 45.0316 799.086 44.9292L799.127 44.8736L799.192 44.7942C799.226 44.7439 799.256 44.6908 799.281 44.6353C799.307 44.5871 799.329 44.5366 799.346 44.4844L802.627 33.7138V33.6185C802.631 33.5815 802.631 33.5443 802.627 33.5073V33.4358C802.631 33.4121 802.631 33.388 802.627 33.3643C802.631 33.3141 802.631 33.2637 802.627 33.2134H803.68C803.772 33.2216 803.864 33.2216 803.956 33.2134H804.029C804.088 33.1961 804.145 33.172 804.199 33.1419H804.28L804.426 33.0307L804.49 32.9831L804.604 32.8401V32.7925L804.685 32.6574C804.68 32.6312 804.68 32.6043 804.685 32.578C804.681 32.5651 804.681 32.5512 804.685 32.5383C804.702 32.4917 804.716 32.4439 804.725 32.3953C804.722 32.3796 804.722 32.3633 804.725 32.3476C804.721 32.324 804.721 32.2998 804.725 32.2762C804.725 32.2762 804.887 31.9664 804.887 31.9505Z" fill="black"/>
<path d="M783.279 27.9155C783.322 27.9537 783.353 28.0038 783.366 28.0592C783.379 28.1146 783.374 28.1726 783.352 28.2253L779.763 40.0126C779.718 40.1413 779.626 40.2488 779.504 40.3144C779.405 40.3793 779.291 40.4176 779.172 40.4256H767.764C767.667 40.421 767.575 40.3814 767.505 40.3144C767.464 40.2769 767.435 40.2281 767.422 40.1744C767.409 40.1206 767.412 40.0643 767.432 40.0126L771.029 28.2253C771.071 28.095 771.16 27.9845 771.28 27.9155C771.381 27.8553 771.495 27.8199 771.613 27.8123H783.02C783.117 27.8132 783.21 27.8501 783.279 27.9155ZM777.325 37.6376L779.472 30.6002H773.46L771.321 37.6376H777.325ZM794.168 28.0347C794.207 28.079 794.256 28.1142 794.311 28.1376C794.366 28.1609 794.425 28.1719 794.485 28.1697H795.967C796.024 28.1702 796.079 28.1567 796.129 28.1303C796.179 28.1039 796.22 28.0655 796.251 28.0188C796.277 27.9823 796.296 27.941 796.305 27.8973C796.315 27.8537 796.316 27.8086 796.307 27.7646L796.016 25.6677C795.988 25.5706 795.938 25.481 795.87 25.4056C795.831 25.3612 795.782 25.3261 795.728 25.3027C795.673 25.2793 795.614 25.2683 795.554 25.2706H794.071C794.015 25.27 793.959 25.2836 793.91 25.31C793.86 25.3364 793.818 25.3748 793.788 25.4215C793.731 25.5327 793.707 25.6042 793.731 25.6677L794.031 27.7646C794.046 27.8667 794.094 27.9613 794.168 28.0347ZM798.876 25.6518C798.848 25.5548 798.798 25.4651 798.73 25.3897C798.693 25.3455 798.645 25.3104 798.592 25.2869C798.539 25.2635 798.48 25.2525 798.422 25.2547H796.931C796.876 25.2531 796.821 25.2663 796.772 25.2929C796.724 25.3195 796.684 25.3584 796.656 25.4056C796.602 25.476 796.579 25.5646 796.591 25.6518L796.891 27.7487C796.91 27.8498 796.957 27.9434 797.029 28.0188C797.068 28.0623 797.117 28.0968 797.171 28.1201C797.226 28.1435 797.285 28.1549 797.344 28.1538H798.835C798.891 28.1545 798.945 28.141 798.994 28.1145C799.042 28.088 799.082 28.0495 799.111 28.0029C799.139 27.9674 799.159 27.9261 799.168 27.8821C799.178 27.8381 799.178 27.7926 799.167 27.7487L798.876 25.6518ZM792.864 28.829L792.718 27.7964H785.532C785.419 27.8025 785.31 27.8382 785.216 27.8996C785.156 27.9316 785.104 27.9758 785.064 28.0292C785.023 28.0827 784.995 28.1442 784.981 28.2094L784.381 30.1792C784.357 30.2285 784.349 30.2837 784.358 30.3376C784.367 30.3915 784.392 30.4415 784.43 30.4811C784.498 30.5441 784.587 30.5808 784.681 30.5844H793.415L791.268 37.6218H782.558C782.446 37.6243 782.337 37.6573 782.242 37.7171C782.128 37.7884 782.044 37.8987 782.007 38.0268L781.4 39.9967C781.38 40.0472 781.375 40.1022 781.385 40.1554C781.395 40.2087 781.42 40.2582 781.457 40.2985C781.523 40.3657 781.613 40.4055 781.708 40.4097H793.148C793.266 40.3997 793.38 40.3616 793.48 40.2985C793.599 40.2326 793.689 40.1248 793.731 39.9967L797.02 29.2261H793.318C793.259 29.2272 793.201 29.2166 793.146 29.1947C793.092 29.1728 793.043 29.1403 793.002 29.099C792.935 29.027 792.887 28.9396 792.864 28.8449V28.829Z" fill="white"/>
</g>
<defs>
<clipPath id="clip0_211_2045">
<rect width="27.8428" height="27.8428" fill="white" transform="translate(3.01837 21.15)"/>
</clipPath>
<clipPath id="clip1_211_2045">
<rect width="27.8428" height="19.4899" fill="white" transform="translate(131.095 25.2198)"/>
</clipPath>
<clipPath id="clip2_211_2045">
<rect width="38.2838" height="20.8821" fill="white" transform="translate(254.299 24.5237)"/>
</clipPath>
<clipPath id="clip3_211_2045">
<rect width="32.7153" height="20.186" fill="white" transform="translate(385.16 25.2198)"/>
</clipPath>
<clipPath id="clip4_211_2045">
<rect width="28.5388" height="18.7939" fill="white" transform="translate(515.325 25.9158)"/>
</clipPath>
<clipPath id="clip5_211_2045">
<rect width="36.1956" height="13.9214" fill="white" transform="translate(639.226 28.004)"/>
</clipPath>
<clipPath id="clip6_211_2045">
<rect width="38.2838" height="20.8821" fill="white" transform="translate(766.607 24.5237)"/>
</clipPath>
</defs>
</svg>
