<svg width="34" height="34" viewBox="0 0 34 34" fill="none" xmlns="http://www.w3.org/2000/svg">
<g id="Icon">
<g id="Group 2">
<g id="Vector">
<mask id="path-1-inside-1_211_2338" fill="white">
<path d="M20.0112 16.7647C19.8436 16.7647 19.688 16.7186 19.5497 16.6445V16.6464C19.5497 16.9101 19.4472 17.1578 19.2613 17.3433C19.0753 17.5292 18.8279 17.6317 18.5645 17.6317C18.3944 17.6317 18.2368 17.5845 18.0971 17.5084C18.083 17.7496 17.9865 17.9751 17.8145 18.1473C17.6285 18.3333 17.3811 18.4358 17.1175 18.4358C16.5939 18.4358 16.1686 18.0242 16.138 17.5082C15.976 17.5958 15.7928 17.6417 15.6039 17.6296C15.0887 17.5958 14.6853 17.1507 14.6853 16.6161V12.1845L14.1807 13.0587C13.9885 13.3931 13.6287 13.6007 13.2414 13.6007C13.0526 13.6007 12.8661 13.5512 12.701 13.4565C12.4954 13.3373 12.3483 13.1459 12.2871 12.917C12.2256 12.6879 12.2574 12.4483 12.3763 12.243C12.3765 12.243 14.0274 9.38408 14.1281 9.20847C14.1401 9.18206 14.1742 9.10548 14.2032 9.04021C14.2309 8.97789 14.2547 8.91394 14.2775 8.84965C14.7754 7.44409 16.0081 6.57099 17.4949 6.57099C19.4255 6.57099 20.9963 8.2742 20.9963 10.3678L20.9964 15.7793C20.9964 16.0426 20.8941 16.2901 20.7083 16.4762C20.5223 16.6622 20.2749 16.7647 20.0112 16.7647L20.0112 16.7647ZM17.4949 7.09453C16.2174 7.09453 15.1991 7.81612 14.771 9.02474C14.7436 9.10149 14.715 9.17824 14.6818 9.25302C14.5852 9.46966 14.5852 9.46965 14.5579 9.50081L14.5543 9.49769C14.4195 9.75205 14.0191 10.4456 12.8296 12.505C12.7808 12.5895 12.7678 12.6875 12.7927 12.7813C12.818 12.8751 12.8785 12.9542 12.9623 13.0025C13.2224 13.1519 13.5786 13.0555 13.7268 12.7972L14.7205 11.0769C14.7798 10.9744 14.8999 10.9241 15.015 10.9552C15.1295 10.9859 15.209 11.0897 15.209 11.2081V16.6163C15.209 16.8714 15.4015 17.0917 15.6382 17.1072C15.7746 17.1145 15.9019 17.0687 15.9975 16.9733C16.0844 16.8863 16.1323 16.7706 16.1323 16.6467V13.1098C16.1323 12.9651 16.2495 12.8479 16.3942 12.8479C16.5388 12.8479 16.6561 12.965 16.6561 13.1098L16.6559 17.4507C16.6559 17.7052 16.863 17.9123 17.1175 17.9123C17.2412 17.9123 17.3573 17.8645 17.4444 17.7775C17.5313 17.6905 17.5792 17.5744 17.5792 17.4507V13.1098C17.5792 12.9651 17.6963 12.8479 17.8411 12.8479C17.9857 12.8479 18.103 12.9649 18.103 13.1098L18.1028 16.6061V16.6467C18.1028 16.9011 18.3099 17.1082 18.5646 17.1082C18.6881 17.1082 18.8039 17.0602 18.8915 16.9729C18.9784 16.8862 19.0263 16.7704 19.0263 16.6466V13.1096C19.0263 12.9649 19.1434 12.8477 19.2882 12.8477C19.4328 12.8477 19.5501 12.9648 19.5501 13.1096L19.5497 15.7794C19.5497 16.0341 19.7568 16.2412 20.0112 16.2412C20.135 16.2412 20.2508 16.1931 20.3377 16.1064C20.4249 16.0191 20.4727 15.903 20.4727 15.7794L20.4728 10.3679C20.4728 8.56316 19.137 7.09458 17.4949 7.09458L17.4949 7.09453Z"/>
</mask>
<path d="M20.0112 16.7647C19.8436 16.7647 19.688 16.7186 19.5497 16.6445V16.6464C19.5497 16.9101 19.4472 17.1578 19.2613 17.3433C19.0753 17.5292 18.8279 17.6317 18.5645 17.6317C18.3944 17.6317 18.2368 17.5845 18.0971 17.5084C18.083 17.7496 17.9865 17.9751 17.8145 18.1473C17.6285 18.3333 17.3811 18.4358 17.1175 18.4358C16.5939 18.4358 16.1686 18.0242 16.138 17.5082C15.976 17.5958 15.7928 17.6417 15.6039 17.6296C15.0887 17.5958 14.6853 17.1507 14.6853 16.6161V12.1845L14.1807 13.0587C13.9885 13.3931 13.6287 13.6007 13.2414 13.6007C13.0526 13.6007 12.8661 13.5512 12.701 13.4565C12.4954 13.3373 12.3483 13.1459 12.2871 12.917C12.2256 12.6879 12.2574 12.4483 12.3763 12.243C12.3765 12.243 14.0274 9.38408 14.1281 9.20847C14.1401 9.18206 14.1742 9.10548 14.2032 9.04021C14.2309 8.97789 14.2547 8.91394 14.2775 8.84965C14.7754 7.44409 16.0081 6.57099 17.4949 6.57099C19.4255 6.57099 20.9963 8.2742 20.9963 10.3678L20.9964 15.7793C20.9964 16.0426 20.8941 16.2901 20.7083 16.4762C20.5223 16.6622 20.2749 16.7647 20.0112 16.7647L20.0112 16.7647ZM17.4949 7.09453C16.2174 7.09453 15.1991 7.81612 14.771 9.02474C14.7436 9.10149 14.715 9.17824 14.6818 9.25302C14.5852 9.46966 14.5852 9.46965 14.5579 9.50081L14.5543 9.49769C14.4195 9.75205 14.0191 10.4456 12.8296 12.505C12.7808 12.5895 12.7678 12.6875 12.7927 12.7813C12.818 12.8751 12.8785 12.9542 12.9623 13.0025C13.2224 13.1519 13.5786 13.0555 13.7268 12.7972L14.7205 11.0769C14.7798 10.9744 14.8999 10.9241 15.015 10.9552C15.1295 10.9859 15.209 11.0897 15.209 11.2081V16.6163C15.209 16.8714 15.4015 17.0917 15.6382 17.1072C15.7746 17.1145 15.9019 17.0687 15.9975 16.9733C16.0844 16.8863 16.1323 16.7706 16.1323 16.6467V13.1098C16.1323 12.9651 16.2495 12.8479 16.3942 12.8479C16.5388 12.8479 16.6561 12.965 16.6561 13.1098L16.6559 17.4507C16.6559 17.7052 16.863 17.9123 17.1175 17.9123C17.2412 17.9123 17.3573 17.8645 17.4444 17.7775C17.5313 17.6905 17.5792 17.5744 17.5792 17.4507V13.1098C17.5792 12.9651 17.6963 12.8479 17.8411 12.8479C17.9857 12.8479 18.103 12.9649 18.103 13.1098L18.1028 16.6061V16.6467C18.1028 16.9011 18.3099 17.1082 18.5646 17.1082C18.6881 17.1082 18.8039 17.0602 18.8915 16.9729C18.9784 16.8862 19.0263 16.7704 19.0263 16.6466V13.1096C19.0263 12.9649 19.1434 12.8477 19.2882 12.8477C19.4328 12.8477 19.5501 12.9648 19.5501 13.1096L19.5497 15.7794C19.5497 16.0341 19.7568 16.2412 20.0112 16.2412C20.135 16.2412 20.2508 16.1931 20.3377 16.1064C20.4249 16.0191 20.4727 15.903 20.4727 15.7794L20.4728 10.3679C20.4728 8.56316 19.137 7.09458 17.4949 7.09458L17.4949 7.09453Z" fill="#4CAF4F"/>
<path d="M20.0112 16.7647V15.8366H23.2902L20.4976 17.5551L20.0112 16.7647ZM19.5497 16.6445H18.6216V15.0937L19.9883 15.8265L19.5497 16.6445ZM19.2613 17.3433L18.605 16.687L18.6059 16.6861L19.2613 17.3433ZM18.0971 17.5084L17.1706 17.4542L17.256 15.9936L18.5409 16.6933L18.0971 17.5084ZM17.8145 18.1473L18.4711 18.8032L18.4708 18.8036L17.8145 18.1473ZM16.138 17.5082L15.6967 16.6918L16.9781 15.9992L17.0645 17.4532L16.138 17.5082ZM15.6039 17.6296L15.5444 18.5558L15.5431 18.5557L15.6039 17.6296ZM14.6853 12.1845L13.8815 11.7205L15.6134 8.7201V12.1845H14.6853ZM14.1807 13.0587L13.3761 12.5962L13.3769 12.5947L14.1807 13.0587ZM12.701 13.4565L12.2396 14.2618L12.2355 14.2595L12.701 13.4565ZM12.2871 12.917L13.1835 12.6764L13.1837 12.6774L12.2871 12.917ZM12.3763 12.243L11.5731 11.7779L11.8412 11.3149H12.3763V12.243ZM14.1281 9.20847L14.9734 9.59172L14.9551 9.63191L14.9332 9.67019L14.1281 9.20847ZM14.2032 9.04021L13.3552 8.66308L13.3552 8.66307L14.2032 9.04021ZM14.2775 8.84965L15.1523 9.15953L15.1522 9.15978L14.2775 8.84965ZM20.9963 10.3678L20.0682 10.3678V10.3678H20.9963ZM20.9964 15.7793L21.9245 15.7792V15.7793H20.9964ZM20.7083 16.4762L21.3652 17.1319L21.3645 17.1325L20.7083 16.4762ZM20.0112 16.7647V17.6928H16.7322L19.5248 15.9743L20.0112 16.7647ZM17.4949 7.09453V6.16644H18.7253L18.3873 7.3495L17.4949 7.09453ZM14.771 9.02474L15.6458 9.33466L15.6451 9.33666L14.771 9.02474ZM14.6818 9.25302L15.5296 9.63047L15.5294 9.63096L14.6818 9.25302ZM14.5579 9.50081L15.2568 10.1115L14.6497 10.8063L13.9513 10.2032L14.5579 9.50081ZM14.5543 9.49769L13.7343 9.06309L14.2796 8.03413L15.1609 8.79529L14.5543 9.49769ZM12.8296 12.505L13.6333 12.9692L13.6329 12.9698L12.8296 12.505ZM12.7927 12.7813L11.8965 13.0226L11.8958 13.0197L12.7927 12.7813ZM12.9623 13.0025L12.5 13.8073L12.4983 13.8063L12.9623 13.0025ZM13.7268 12.7972L12.9219 12.3352L12.9232 12.333L13.7268 12.7972ZM14.7205 11.0769L13.9168 10.6127L13.9174 10.6118L14.7205 11.0769ZM15.015 10.9552L14.7748 11.8517L14.7725 11.8511L15.015 10.9552ZM15.6382 17.1072L15.5892 18.0341L15.5772 18.0333L15.6382 17.1072ZM15.9975 16.9733L16.6537 17.6295L16.6532 17.6301L15.9975 16.9733ZM16.6561 13.1098H17.5842V13.1098L16.6561 13.1098ZM16.6559 17.4507H15.7278V17.4507L16.6559 17.4507ZM17.4444 17.7775L18.1013 18.4332L18.1 18.4344L17.4444 17.7775ZM18.103 13.1098H19.0311V13.1098L18.103 13.1098ZM18.1028 16.6061H17.1747V16.606L18.1028 16.6061ZM18.8915 16.9729L19.5471 17.6298L19.5465 17.6304L18.8915 16.9729ZM19.5501 13.1096H20.4781V13.1097L19.5501 13.1096ZM19.5497 15.7794H18.6216V15.7793L19.5497 15.7794ZM20.3377 16.1064L20.994 16.7626L20.9933 16.7633L20.3377 16.1064ZM20.4727 15.7794H19.5446V15.7793L20.4727 15.7794ZM20.4728 10.3679H21.4009V10.3679L20.4728 10.3679ZM17.4949 7.09458V8.02268H16.2645L16.6025 6.83962L17.4949 7.09458ZM20.0112 17.6928C19.6695 17.6928 19.3644 17.5982 19.1112 17.4624L19.9883 15.8265C20.0003 15.833 20.0079 15.8354 20.0109 15.8362C20.0135 15.8369 20.0132 15.8366 20.0112 15.8366V17.6928ZM20.4778 16.6445V16.6464H18.6216V16.6445H20.4778ZM20.4778 16.6464C20.4778 17.1555 20.2781 17.64 19.9167 18.0004L18.6059 16.6861C18.6125 16.6795 18.6158 16.6738 18.6177 16.6692C18.6196 16.6646 18.6216 16.6574 18.6216 16.6464H20.4778ZM19.9175 17.9995C19.5574 18.3597 19.0738 18.5598 18.5645 18.5598V16.7036C18.5751 16.7036 18.5821 16.7017 18.5869 16.6997C18.5916 16.6978 18.5978 16.6943 18.605 16.687L19.9175 17.9995ZM18.5645 18.5598C18.2183 18.5598 17.9093 18.463 17.6532 18.3235L18.5409 16.6933C18.553 16.6999 18.5607 16.7024 18.5637 16.7032C18.5663 16.704 18.5661 16.7036 18.5645 16.7036V18.5598ZM19.0236 17.5626C18.9969 18.0194 18.8116 18.4624 18.4711 18.8032L17.1579 17.4914C17.1614 17.488 17.1633 17.4849 17.165 17.4811C17.1669 17.4769 17.1697 17.4684 17.1706 17.4542L19.0236 17.5626ZM18.4708 18.8036C18.1105 19.1638 17.6269 19.3639 17.1175 19.3639V17.5077C17.1283 17.5077 17.1354 17.5057 17.1401 17.5038C17.1449 17.5018 17.151 17.4983 17.1583 17.4911L18.4708 18.8036ZM17.1175 19.3639C16.0929 19.3639 15.2707 18.5597 15.2115 17.5633L17.0645 17.4532C17.0654 17.469 17.0719 17.4828 17.0833 17.4937C17.0889 17.4991 17.0945 17.5025 17.0994 17.5045C17.1037 17.5062 17.1092 17.5077 17.1175 17.5077V19.3639ZM16.5793 18.3247C16.2795 18.4867 15.9241 18.5802 15.5444 18.5558L15.6634 16.7034C15.6634 16.7034 15.6654 16.7036 15.6703 16.7025C15.6755 16.7012 15.6846 16.6983 15.6967 16.6918L16.5793 18.3247ZM15.5431 18.5557C14.5126 18.4881 13.7572 17.6118 13.7572 16.6161H15.6134C15.6134 16.6475 15.6248 16.6716 15.6391 16.6874C15.653 16.7028 15.6625 16.7034 15.6646 16.7035L15.5431 18.5557ZM13.7572 16.6161V12.1845H15.6134V16.6161H13.7572ZM15.4891 12.6484L14.9845 13.5227L13.3769 12.5947L13.8815 11.7205L15.4891 12.6484ZM14.9854 13.5212C14.6267 14.1451 13.9592 14.5288 13.2414 14.5288V12.6726C13.2983 12.6726 13.3503 12.641 13.3761 12.5962L14.9854 13.5212ZM13.2414 14.5288C12.8904 14.5288 12.5449 14.4368 12.2396 14.2618L13.1624 12.6513C13.1874 12.6656 13.2148 12.6726 13.2414 12.6726V14.5288ZM12.2355 14.2595C11.8188 14.0179 11.5156 13.6248 11.3905 13.1566L13.1837 12.6774C13.1829 12.6743 13.1806 12.6687 13.1761 12.6628C13.1717 12.6571 13.1676 12.6542 13.1665 12.6536L12.2355 14.2595ZM11.3907 13.1576C11.2651 12.6897 11.3309 12.1963 11.5731 11.7779L13.1795 12.708C13.1808 12.7057 13.1831 12.7005 13.1841 12.693C13.1851 12.6854 13.1843 12.6794 13.1835 12.6764L11.3907 13.1576ZM12.3763 11.3149C11.921 11.4342 11.5803 11.7658 11.5777 11.7701C11.5769 11.7715 11.5756 11.7737 11.5752 11.7743C11.575 11.7747 11.5746 11.7754 11.5745 11.7756C11.5744 11.7758 11.5742 11.7761 11.5742 11.7761C11.574 11.7764 11.5741 11.7763 11.5744 11.7757C11.5751 11.7746 11.5761 11.7728 11.5777 11.7701C11.5807 11.7648 11.5853 11.7569 11.5913 11.7465C11.6034 11.7255 11.6212 11.6948 11.6438 11.6556C11.6892 11.5771 11.7541 11.4648 11.8322 11.3294C11.9886 11.0586 12.1981 10.6958 12.4107 10.3275C12.8368 9.58965 13.2735 8.833 13.323 8.74674L14.9332 9.67019C14.8819 9.75954 14.4429 10.5201 14.0182 11.2556C13.8056 11.624 13.596 11.9869 13.4396 12.2577C13.3614 12.3931 13.2965 12.5055 13.2511 12.584C13.2285 12.6233 13.2106 12.6541 13.1985 12.6752C13.1924 12.6857 13.1877 12.6939 13.1845 12.6994C13.1829 12.7022 13.1816 12.7044 13.1806 12.7061C13.1801 12.7069 13.1796 12.7078 13.1791 12.7088C13.1789 12.7091 13.1783 12.7101 13.1775 12.7113C13.1771 12.7121 13.1758 12.7143 13.1749 12.7158C13.1723 12.7201 12.8316 13.0517 12.3763 13.1711V11.3149ZM13.2828 8.82521C13.293 8.80268 13.3254 8.73003 13.3552 8.66308L15.0512 9.41734C15.0229 9.48093 14.9871 9.56145 14.9734 9.59172L13.2828 8.82521ZM13.3552 8.66307C13.3681 8.63407 13.3824 8.59701 13.4027 8.53952L15.1522 9.15978C15.127 9.23087 15.0937 9.32172 15.0512 9.41735L13.3552 8.66307ZM13.4027 8.53977C14.0312 6.76516 15.6134 5.64289 17.4949 5.64289V7.49908C16.4028 7.49908 15.5195 8.12302 15.1523 9.15953L13.4027 8.53977ZM17.4949 5.64289C20.0075 5.64289 21.9244 7.83383 21.9244 10.3678H20.0682C20.0682 8.71457 18.8436 7.49908 17.4949 7.49908V5.64289ZM21.9244 10.3677L21.9245 15.7792L20.0683 15.7793L20.0682 10.3678L21.9244 10.3677ZM21.9245 15.7793C21.9245 16.2882 21.7248 16.7715 21.3652 17.1319L20.0514 15.8206C20.0588 15.8132 20.0623 15.807 20.0643 15.8021C20.0664 15.7972 20.0683 15.7901 20.0683 15.7793H21.9245ZM21.3645 17.1325C21.0043 17.4928 20.5207 17.6928 20.0112 17.6928V15.8366C20.0221 15.8366 20.0292 15.8346 20.0339 15.8327C20.0387 15.8307 20.0448 15.8272 20.052 15.82L21.3645 17.1325ZM19.5248 15.9743L19.5248 15.9743L20.4976 17.5551L20.4976 17.5551L19.5248 15.9743ZM17.4949 8.02262C16.6125 8.02262 15.9434 8.49467 15.6458 9.33466L13.8961 8.71482C14.4549 7.13757 15.8223 6.16644 17.4949 6.16644V8.02262ZM15.6451 9.33666C15.6158 9.41876 15.5777 9.52244 15.5296 9.63047L13.8339 8.87556C13.8524 8.83403 13.8714 8.78422 13.8969 8.71282L15.6451 9.33666ZM15.5294 9.63096C15.4869 9.72629 15.4513 9.80679 15.424 9.86131C15.4071 9.89516 15.3798 9.94731 15.3401 10.0051C15.2998 10.0636 15.2601 10.1078 15.2568 10.1115L13.859 8.89016C13.8612 8.88766 13.8605 8.88847 13.8594 8.88975C13.858 8.8914 13.8544 8.8956 13.8496 8.90137C13.8447 8.90735 13.8386 8.91507 13.8316 8.92424C13.8246 8.9335 13.8175 8.94335 13.8103 8.95374C13.7958 8.9749 13.7846 8.99343 13.7766 9.00745C13.7692 9.02053 13.7646 9.02959 13.7636 9.03163C13.7626 9.03373 13.7632 9.03249 13.7664 9.02574C13.7694 9.0192 13.7738 9.00978 13.78 8.99606C13.7861 8.98247 13.7935 8.96605 13.8026 8.94576C13.8116 8.9255 13.822 8.90228 13.8341 8.87507L15.5294 9.63096ZM13.9513 10.2032L13.9477 10.2001L15.1609 8.79529L15.1646 8.79841L13.9513 10.2032ZM15.3744 9.9323C15.2291 10.2064 14.8144 10.9241 13.6333 12.9692L12.0259 12.0408C13.2237 9.96703 13.6099 9.29772 13.7343 9.06309L15.3744 9.9323ZM13.6329 12.9698C13.7072 12.8415 13.7279 12.6867 13.6897 12.5429L11.8958 13.0197C11.8077 12.6884 11.8543 12.3374 12.0263 12.0402L13.6329 12.9698ZM13.6889 12.54C13.6507 12.3982 13.5568 12.2741 13.4263 12.1988L12.4983 13.8063C12.2001 13.6342 11.9852 13.3521 11.8965 13.0226L13.6889 12.54ZM13.4246 12.1978C13.3189 12.1371 13.2162 12.1375 13.1452 12.1566C13.0745 12.1756 12.9839 12.2272 12.9219 12.3352L14.5318 13.2592C14.1273 13.964 13.2029 14.2111 12.5 13.8073L13.4246 12.1978ZM12.9232 12.333L13.9168 10.6127L15.5241 11.5411L14.5305 13.2614L12.9232 12.333ZM13.9174 10.6118C14.1854 10.1489 14.7326 9.91733 15.2575 10.0594L14.7725 11.8511C15.0671 11.9308 15.3742 11.7999 15.5236 11.5421L13.9174 10.6118ZM15.2552 10.0588C15.7758 10.1983 16.1371 10.6701 16.1371 11.2081H14.2809C14.2809 11.5093 14.4831 11.7736 14.7748 11.8517L15.2552 10.0588ZM16.1371 11.2081V16.6163H14.2809V11.2081H16.1371ZM16.1371 16.6163C16.1371 16.5105 16.0979 16.4144 16.0336 16.3408C15.9694 16.2673 15.8561 16.1915 15.6991 16.1811L15.5772 18.0333C14.7959 17.9819 14.2809 17.3013 14.2809 16.6163H16.1371ZM15.6872 16.1804C15.5775 16.1746 15.4436 16.2148 15.3418 16.3164L16.6532 17.6301C16.3602 17.9226 15.9717 18.0543 15.5892 18.034L15.6872 16.1804ZM15.3412 16.317C15.2531 16.4051 15.2042 16.5257 15.2042 16.6467H17.0604C17.0604 17.0154 16.9157 17.3676 16.6537 17.6295L15.3412 16.317ZM15.2042 16.6467V13.1098H17.0604V16.6467H15.2042ZM15.2042 13.1098C15.2042 12.4525 15.737 11.9198 16.3942 11.9198V13.776C16.7621 13.776 17.0604 13.4777 17.0604 13.1098H15.2042ZM16.3942 11.9198C17.051 11.9198 17.5842 12.452 17.5842 13.1098H15.728C15.728 13.4779 16.0266 13.776 16.3942 13.776V11.9198ZM17.5842 13.1098L17.584 17.4507L15.7278 17.4507L15.728 13.1097L17.5842 13.1098ZM17.584 17.4507C17.584 17.1926 17.3756 16.9842 17.1175 16.9842V18.8404C16.3505 18.8404 15.7278 18.2178 15.7278 17.4507H17.584ZM17.1175 16.9842C16.9968 16.9842 16.8767 17.0329 16.7888 17.1206L18.1 18.4344C17.8379 18.696 17.4856 18.8404 17.1175 18.8404V16.9842ZM16.7875 17.1219C16.6998 17.2098 16.6511 17.3299 16.6511 17.4507H18.5073C18.5073 17.8188 18.3628 18.1711 18.1013 18.4332L16.7875 17.1219ZM16.6511 17.4507V13.1098H18.5073V17.4507H16.6511ZM16.6511 13.1098C16.6511 12.4529 17.1833 11.9198 17.8411 11.9198V13.7759C18.2092 13.7759 18.5073 13.4773 18.5073 13.1098H16.6511ZM17.8411 11.9198C18.4979 11.9198 19.0311 12.452 19.0311 13.1098H17.1749C17.1749 13.4779 17.4735 13.7759 17.8411 13.7759V11.9198ZM19.0311 13.1098L19.0309 16.6061L17.1747 16.606L17.1749 13.1097L19.0311 13.1098ZM19.0309 16.6061V16.6467H17.1747V16.6061H19.0309ZM19.0309 16.6467C19.0309 16.3881 18.8221 16.1801 18.5646 16.1801V18.0363C17.7978 18.0363 17.1747 17.4141 17.1747 16.6467H19.0309ZM18.5646 16.1801C18.4413 16.1801 18.3219 16.2303 18.2364 16.3154L19.5465 17.6304C19.2859 17.89 18.9349 18.0363 18.5646 18.0363V16.1801ZM18.2358 16.316C18.147 16.4046 18.0982 16.5257 18.0982 16.6466H19.9544C19.9544 17.015 19.8097 17.3677 19.5471 17.6298L18.2358 16.316ZM18.0982 16.6466V13.1096H19.9544V16.6466H18.0982ZM18.0982 13.1096C18.0982 12.4527 18.6304 11.9196 19.2882 11.9196V13.7758C19.6563 13.7758 19.9544 13.4771 19.9544 13.1096H18.0982ZM19.2882 11.9196C19.945 11.9196 20.4781 12.4518 20.4781 13.1096H18.622C18.622 13.4777 18.9206 13.7758 19.2882 13.7758V11.9196ZM20.4781 13.1097L20.4778 15.7795L18.6216 15.7793L18.622 13.1095L20.4781 13.1097ZM20.4778 15.7794C20.4778 15.5219 20.2699 15.3131 20.0112 15.3131V17.1693C19.2438 17.1693 18.6216 16.5462 18.6216 15.7794H20.4778ZM20.0112 15.3131C19.8894 15.3131 19.7693 15.3624 19.6821 15.4495L20.9933 16.7633C20.7322 17.0239 20.3806 17.1693 20.0112 17.1693V15.3131ZM19.6814 15.4501C19.5931 15.5385 19.5446 15.6591 19.5446 15.7794H21.4008C21.4008 16.1469 21.2568 16.4998 20.994 16.7626L19.6814 15.4501ZM19.5446 15.7793L19.5447 10.3679L21.4009 10.3679L21.4008 15.7794L19.5446 15.7793ZM19.5447 10.3679C19.5447 8.99115 18.5437 8.02268 17.4949 8.02268V6.16649C19.7302 6.16649 21.4009 8.13517 21.4009 10.3679H19.5447ZM16.6025 6.83962L16.6025 6.83956L18.3873 7.3495L18.3873 7.34955L16.6025 6.83962Z" fill="#4CAF4F" mask="url(#path-1-inside-1_211_2338)"/>
</g>
<path id="Vector_2" d="M11.5286 21.7395C11.4043 21.8143 11.2436 21.7739 11.1693 21.6498C11.0949 21.5258 11.1352 21.3649 11.259 21.2905M11.5286 21.7395L13.7912 18.695C14.0098 18.5636 14.2981 18.6154 14.4329 18.8104M11.5286 21.7395L14.5615 19.92H14.5617L14.562 19.9198M11.5286 21.7395L15.726 20.2981C15.8319 20.2345 15.9067 20.1338 15.9366 20.0143M11.259 21.2905L14.2921 19.471C14.398 19.4073 14.4729 19.3065 14.5028 19.1873M11.259 21.2905L11.2897 21.3417L11.3937 21.515L11.3939 21.5154L11.4408 21.5935L11.4977 21.6884L11.4979 21.6883L11.4979 21.6883L11.4982 21.6882M11.259 21.2905L11.2898 21.3416M14.5028 19.1873C14.5356 19.0564 14.5107 18.9226 14.4329 18.8104M14.5028 19.1873L14.5776 19.206L14.5705 19.0521C14.5656 18.9462 14.5346 18.8522 14.4822 18.7767L14.482 18.7765L14.4329 18.8104M14.5028 19.1873L14.5776 19.206L14.585 19.3648L14.4332 19.4559H14.433L14.3228 19.5221L14.3227 19.5221L14.3227 19.5221L11.2899 21.3416M14.4329 18.8104L14.482 18.7764L12.2427 22.9289C12.3379 22.8716 12.3694 22.7478 12.3117 22.6516C12.2544 22.5563 12.1301 22.5249 12.0344 22.5823L15.0673 20.7629C15.137 20.721 15.21 20.6895 15.2846 20.6677L15.755 20.3465L15.755 20.3465L15.7809 20.3288C15.8913 20.2535 15.9643 20.149 15.9943 20.0288L15.9943 20.0287L15.9366 20.0143M11.2899 21.3416C11.3853 21.2845 11.5096 21.3154 11.5671 21.4109C11.5673 21.4111 11.5674 21.4113 11.5675 21.4115C11.6247 21.5076 11.5932 21.631 11.4982 21.6882M11.2899 21.3416C11.2899 21.3416 11.2898 21.3416 11.2898 21.3416M11.2899 21.3416L11.2898 21.3416M11.4982 21.6882L14.5308 19.8689L14.5308 19.8689L14.531 19.8688C14.5311 19.8687 14.5312 19.8687 14.5313 19.8686L14.5615 19.919L14.5617 19.9193L14.562 19.9198M11.4982 21.6882L11.3942 21.5152L11.394 21.5149L11.3588 21.4564L11.2898 21.3416M14.562 19.9198V19.8493C14.6205 19.811 14.6741 19.7666 14.7219 19.717L15.2211 19.4564L15.2211 19.4564L15.2488 19.442C15.329 19.4001 15.4099 19.3805 15.4868 19.3805C15.5284 19.3805 15.5713 19.3857 15.6149 19.3965C15.615 19.3965 15.615 19.3965 15.615 19.3965C15.6152 19.3965 15.6153 19.3966 15.6154 19.3966L15.7131 19.0042M14.562 19.9198L15.2511 19.5064C15.3567 19.4431 15.4803 19.4246 15.6005 19.4544C15.7201 19.4842 15.821 19.559 15.8844 19.6648C15.9479 19.7707 15.9664 19.8949 15.9366 20.0143M15.7131 19.0042C15.7131 19.0042 15.7131 19.0042 15.7131 19.0042M15.7131 19.0042C15.9523 19.064 16.1556 19.2149 16.2823 19.4259L16.3334 19.3953M15.7131 19.0042L15.7276 18.9463M15.7131 19.0042L15.6151 19.3965C15.7508 19.4304 15.8633 19.5138 15.9354 19.634C15.9354 19.634 15.9355 19.6341 15.9355 19.6342C15.9355 19.6342 15.9355 19.6342 15.9355 19.6342C16.0078 19.7549 16.0282 19.8934 15.9944 20.0286L15.9943 20.0287L15.9366 20.0143M15.7131 19.0042C15.713 19.0042 15.713 19.0042 15.7129 19.0042L15.7124 19.004C15.6407 18.9862 15.568 18.9771 15.4957 18.9765M15.7131 19.0042L15.7276 18.9463M15.2755 21.1095L15.5371 20.9526L15.8068 21.1117C15.8876 21.1594 15.9487 21.2191 15.99 21.2881L15.9901 21.2883C15.9902 21.2884 15.9902 21.2884 15.9903 21.2885L15.9393 21.3191M15.2755 21.1095L16.0493 21.6832C16.083 21.5475 16.0625 21.4091 15.9903 21.2886L15.9393 21.3191M15.2755 21.1095L15.3062 21.1607M15.2755 21.1095L15.2755 21.1096L15.3062 21.1607M15.9393 21.3191C15.8083 21.1009 15.5241 21.0299 15.3062 21.1607M15.9393 21.3191C16.003 21.4249 16.0215 21.5492 15.9917 21.6688L15.3062 21.1607M16.3815 21.0388C16.3838 21.0424 16.386 21.0461 16.3881 21.0497L16.3815 21.0388ZM16.3815 21.0388C16.3659 21.0511 16.3499 21.063 16.3338 21.0746C16.3348 21.0764 16.3359 21.0781 16.337 21.0799L16.3815 21.0388ZM16.3093 20.3311C16.3427 20.267 16.3688 20.1985 16.3868 20.1268L16.3093 20.3311ZM16.3093 20.3311C16.326 20.3414 16.3425 20.3521 16.3588 20.3632C16.3961 20.2939 16.425 20.2196 16.4445 20.1412C16.5083 19.8861 16.4688 19.6213 16.3334 19.3953M16.3093 20.3311L16.3868 20.1267C16.4465 19.8876 16.4089 19.6373 16.2825 19.4263L16.2823 19.4261C16.2823 19.426 16.2823 19.426 16.2823 19.426L16.3334 19.3953M16.3334 19.3953C16.1981 19.1697 15.9829 19.0101 15.7276 18.9463M15.7276 18.9463L15.4905 18.9165M15.4905 18.9165C15.4926 18.9365 15.4944 18.9565 15.4957 18.9765M15.4905 18.9165C15.4893 18.9165 15.488 18.9165 15.4868 18.9165C15.3299 18.9165 15.1757 18.9567 15.034 19.0306M15.4905 18.9165L15.034 19.0306M15.4957 18.9765C15.4965 18.9874 15.4971 18.9982 15.4976 19.0091L15.4868 19.0096L15.1987 19.023M15.4957 18.9765C15.4928 18.9765 15.4898 18.9764 15.4868 18.9764C15.3889 18.9765 15.2918 18.9922 15.1987 19.023M15.1987 19.023L15.034 19.0306M15.1987 19.023C15.1515 19.0386 15.1053 19.0581 15.0606 19.0814C15.0443 19.0899 15.0283 19.0989 15.0125 19.1084L15.0123 19.1085L14.9793 19.1283M15.034 19.0306L14.7696 19.2541L14.7696 19.2541L14.9529 19.3C14.9529 19.3 14.9529 19.3 14.9529 19.3001C14.9672 19.243 14.976 19.1855 14.9793 19.1283M15.034 19.0306L14.9632 18.8949M15.034 19.0306C15.0267 18.8725 14.985 18.7168 14.905 18.5778C14.8868 18.5859 14.8688 18.5944 14.851 18.6032M14.9793 19.1283C14.9812 19.0964 14.9814 19.0647 14.98 19.0331C14.9779 18.9866 14.9723 18.9404 14.9632 18.8949M14.9793 19.1283L14.9632 18.8949M14.9632 18.8949L14.8193 18.6192C14.8298 18.6138 14.8404 18.6084 14.851 18.6032M14.9632 18.8949L14.8144 18.5462C14.8273 18.5649 14.8395 18.5839 14.851 18.6032M14.9632 18.8949C14.9428 18.7929 14.905 18.6944 14.851 18.6032M16.0426 20.712L16.1219 20.5776C16.0876 20.6097 16.0506 20.6394 16.0113 20.6662C15.9962 20.6765 15.9807 20.6865 15.9649 20.696L15.9647 20.6961L15.9312 20.7162L16.0426 20.712ZM8.63179 18.5524L8.57903 18.5246C8.56934 18.5421 8.54519 18.5856 8.50952 18.6499C8.50069 18.6658 8.49115 18.683 8.48095 18.7013C8.49914 18.7104 8.51748 18.7184 8.53585 18.7253C8.56722 18.6688 8.5992 18.6112 8.63179 18.5524ZM12.7788 23.8231C12.7787 23.8231 12.7787 23.8231 12.7786 23.8231L12.7788 23.8231Z" fill="#4CAF4F" stroke="#4CAF4F" stroke-width="0.928093"/>
<path id="Vector_3" d="M24.4805 19.3886L24.4805 19.3886L24.4805 19.3886ZM24.4805 19.3886C24.3833 19.2144 24.3872 18.9999 24.4902 18.8282L24.4805 19.3886ZM18.7389 18.9763C18.6664 18.9769 18.5935 18.9861 18.5216 19.0041L18.7389 18.9763ZM18.7389 18.9763C18.7403 18.9564 18.742 18.9364 18.7442 18.9164L18.7389 18.9763ZM24.0629 19.714L24.0235 19.643L24.0629 19.714ZM22.9447 21.3415C22.9446 21.3415 22.9445 21.3414 22.9444 21.3413L22.9446 21.3414L22.9447 21.3415ZM21.4559 23.8235C21.4557 23.8234 21.4556 23.8233 21.4555 23.8233L21.4559 23.8235ZM21.4554 23.8232L21.4555 23.8233L21.4554 23.8232Z" fill="#4CAF4F" stroke="#4CAF4F" stroke-width="0.928093"/>
</g>
</g>
</svg>
