<svg width="34" height="34" viewBox="0 0 34 34" fill="none" xmlns="http://www.w3.org/2000/svg">
<g id="Icon">
<path id="Vector" d="M4.13263 11.6343V11.9823H4.48066H29.5392H29.8872V11.6343V10.0681C29.8872 9.28351 29.5755 8.53106 29.0207 7.97627C28.4659 7.42148 27.7135 7.1098 26.9289 7.1098H7.09093C6.30634 7.1098 5.55388 7.42148 4.99909 7.97627C4.44431 8.53106 4.13263 9.28351 4.13263 10.0681V11.6343ZM29.8872 13.7225V13.3744H29.5392H4.48066H4.13263V13.7225V23.6415C4.13263 24.426 4.44431 25.1785 4.99909 25.7333C5.55388 26.2881 6.30634 26.5997 7.09093 26.5997H26.9289C27.7135 26.5997 28.4659 26.2881 29.0207 25.7333C29.5755 25.1785 29.8872 24.426 29.8872 23.6415V13.7225ZM2.74049 10.0681C2.74049 8.91429 3.19884 7.80774 4.0147 6.99188C4.83057 6.17601 5.93712 5.71766 7.09093 5.71766H26.9289C28.0827 5.71766 29.1893 6.17601 30.0051 6.99188C30.821 7.80774 31.2793 8.91429 31.2793 10.0681V23.6415C31.2793 24.7953 30.821 25.9018 30.0051 26.7177C29.1893 27.5335 28.0827 27.9919 26.9289 27.9919H7.09093C5.93712 27.9919 4.83057 27.5335 4.0147 26.7177C3.19884 25.9018 2.74049 24.7953 2.74049 23.6415V10.0681ZM22.2304 20.3351H25.3627C25.5474 20.3351 25.7244 20.4085 25.8549 20.539C25.9855 20.6695 26.0588 20.8466 26.0588 21.0312C26.0588 21.2158 25.9855 21.3929 25.8549 21.5234C25.7244 21.6539 25.5474 21.7273 25.3627 21.7273H22.2304C22.0458 21.7273 21.8688 21.6539 21.7382 21.5234C21.6077 21.3929 21.5344 21.2158 21.5344 21.0312C21.5344 20.8466 21.6077 20.6695 21.7382 20.539C21.8688 20.4085 22.0458 20.3351 22.2304 20.3351Z" fill="#4CAF4F" stroke="#4CAF4F" stroke-width="0.696069"/>
</g>
</svg>
